<?xml version="1.0" encoding="UTF-8"?><svg xmlns="http://www.w3.org/2000/svg" xmlns:xlink="http://www.w3.org/1999/xlink" height="156.7" preserveAspectRatio="xMidYMid meet" version="1.0" viewBox="176.4 171.6 147.1 156.7" width="147.1" zoomAndPan="magnify"><g><g id="change1_1"><path d="M 254.621094 288.355469 L 283.910156 181.289062 L 323.503906 181.289062 L 274.011719 328.351562 L 235.226562 328.351562 L 186.140625 181.289062 L 225.429688 181.289062 L 254.621094 288.355469" fill="#f5778b"/></g><g id="change2_1"><path d="M 211.007812 273.523438 C 210.371094 273.523438 209.777344 273.121094 209.5625 272.480469 L 208.886719 270.457031 C 208.621094 269.660156 209.050781 268.796875 209.847656 268.53125 C 210.648438 268.265625 211.507812 268.695312 211.777344 269.492188 L 212.453125 271.519531 C 212.71875 272.316406 212.285156 273.179688 211.488281 273.445312 C 211.328125 273.496094 211.167969 273.523438 211.007812 273.523438 Z M 265.890625 321.753906 L 227.105469 321.753906 C 226.449219 321.753906 225.871094 321.335938 225.660156 320.714844 L 214.414062 287.019531 C 214.148438 286.222656 214.578125 285.359375 215.378906 285.09375 C 216.179688 284.824219 217.039062 285.257812 217.304688 286.054688 L 228.203125 318.707031 L 264.796875 318.707031 L 313.265625 174.691406 L 276.949219 174.691406 L 247.96875 280.636719 C 247.785156 281.296875 247.183594 281.757812 246.5 281.757812 L 246.496094 281.757812 C 245.8125 281.757812 245.210938 281.296875 245.027344 280.632812 L 216.144531 174.691406 L 180.132812 174.691406 L 205.691406 251.265625 C 205.957031 252.0625 205.527344 252.925781 204.726562 253.191406 C 203.929688 253.457031 203.066406 253.027344 202.800781 252.226562 L 176.574219 173.652344 C 176.417969 173.1875 176.496094 172.679688 176.78125 172.28125 C 177.070312 171.882812 177.527344 171.648438 178.019531 171.648438 L 217.308594 171.648438 C 217.996094 171.648438 218.597656 172.109375 218.777344 172.769531 L 246.5 274.453125 L 274.320312 172.769531 C 274.503906 172.105469 275.101562 171.648438 275.789062 171.648438 L 315.382812 171.648438 C 315.875 171.648438 316.335938 171.882812 316.621094 172.28125 C 316.90625 172.679688 316.984375 173.191406 316.828125 173.65625 L 267.335938 320.71875 C 267.125 321.335938 266.546875 321.753906 265.890625 321.753906" fill="#f2576c"/></g></g></svg>