<svg xmlns="http://www.w3.org/2000/svg" viewBox="0 0 59.999 59.999"><path d="M19.999 11.999a.997.997 0 00.707-.293l8.293-8.293v18.586a1 1 0 102 0V3.413l8.293 8.293a.997.997 0 001.414 0 .999.999 0 000-1.414L30.707.293a1.001 1.001 0 00-1.416 0l-9.999 9.999a.999.999 0 00.707 1.707zM39.292 48.292l-8.293 8.293V37.999a1 1 0 10-2 0v18.586l-8.293-8.293a.999.999 0 10-1.414 1.414l9.999 9.999a.99.99 0 00.326.217.991.991 0 001.09-.217l9.999-9.999a.999.999 0 10-1.414-1.414zM59.922 30.381a1.001 1.001 0 00-.217-1.09l-9.999-9.999a.999.999 0 10-1.414 1.414l8.293 8.293H37.999a1 1 0 100 2h18.586l-8.293 8.293a.999.999 0 101.414 1.414l9.999-9.999a.995.995 0 00.217-.326zM3.413 30.999h18.586a1 1 0 100-2H3.413l8.293-8.293a.999.999 0 10-1.414-1.414L.293 29.291a1.001 1.001 0 000 1.416l9.999 9.999a.997.997 0 001.414 0 .999.999 0 000-1.414l-8.293-8.293z"/></svg>